<?xml version="1.0" encoding="utf-8"?>
<!-- Generator: Adobe Illustrator 16.0.0, SVG Export Plug-In . SVG Version: 6.00 Build 0)  -->
<!DOCTYPE svg PUBLIC "-//W3C//DTD SVG 1.1//EN" "http://www.w3.org/Graphics/SVG/1.1/DTD/svg11.dtd">
<svg version="1.1" id="Слой_1" xmlns="http://www.w3.org/2000/svg" xmlns:xlink="http://www.w3.org/1999/xlink" x="0px" y="0px"
	 width="512px" height="512px" viewBox="0 0 512 512" enable-background="new 0 0 512 512" xml:space="preserve">
<circle fill="#FFFFFF" cx="256" cy="255.75" r="244.25"/>
<linearGradient id="SVGID_1_" gradientUnits="userSpaceOnUse" x1="364.385" y1="-402.1821" x2="678.3948" y2="-27.9596" gradientTransform="matrix(1 0 0 -1 -265.3896 40.6797)">
	<stop  offset="0" style="stop-color:#001D32"/>
	<stop  offset="1" style="stop-color:#40BFE8"/>
</linearGradient>
<path fill="url(#SVGID_1_)" d="M256,11.5c-134.896,0-244.25,109.354-244.25,244.25C11.75,390.646,121.104,500,256,500
	c134.896,0,244.25-109.354,244.25-244.25C500.25,120.854,390.896,11.5,256,11.5z M256,470.002
	c-118.328,0-214.252-95.924-214.252-214.252S137.672,41.498,256,41.498c118.327,0,214.252,95.924,214.252,214.252
	S374.327,470.002,256,470.002z"/>
<linearGradient id="SVGID_2_" gradientUnits="userSpaceOnUse" x1="133.6721" y1="406.7188" x2="372.9744" y2="167.4165">
	<stop  offset="0" style="stop-color:#001D32"/>
	<stop  offset="1" style="stop-color:#40BFE8"/>
</linearGradient>
<path fill="url(#SVGID_2_)" d="M253.383,226.297c6.206,0,11.235,5.029,11.235,11.235s-5.029,11.235-11.235,11.235
	s-11.235-5.029-11.235-11.235S247.177,226.297,253.383,226.297z M292.705,237.532c0,6.206,5.029,11.235,11.234,11.235
	c6.206,0,11.235-5.029,11.235-11.235s-5.029-11.235-11.235-11.235C297.735,226.297,292.705,231.327,292.705,237.532z
	 M191.59,237.532c0,6.206,5.029,11.235,11.235,11.235s11.235-5.029,11.235-11.235s-5.029-11.235-11.235-11.235
	S191.59,231.327,191.59,237.532z M387.873,342.896c13.148,13.148,13.148,34.53,0.006,47.672c-6.569,6.57-15.202,9.856-23.832,9.856
	c-8.631,0-17.263-3.286-23.832-9.856l-61.675-61.536c-1.31-1.307-2.275-2.915-2.813-4.688l-13.433-44.223
	c-1.192-3.921-0.154-8.179,2.707-11.111s7.092-4.073,11.042-2.981l45.346,12.562c1.868,0.518,3.568,1.507,4.939,2.877
	L387.873,342.896z M296.406,315.115l41.62,41.528l15.892-15.892l-41.375-41.295l-22.813-6.32L296.406,315.115z M371.99,358.791
	l-2.168-2.166l-15.889,15.89l2.161,2.155c4.389,4.391,11.516,4.391,15.896,0.01C376.372,370.298,376.372,363.172,371.99,358.791z
	 M260.194,345.644c-2.076,0.089-4.178,0.136-6.25,0.136c-18.065,0-35.458-3.364-51.691-9.998c-2.765-1.128-5.868-1.11-8.619,0.051
	l-51.157,21.595l17.236-40.83c1.686-3.992,0.924-8.6-1.959-11.838c-16.451-18.481-25.146-40.594-25.146-63.941
	c0-58.186,54.432-105.523,121.337-105.523c66.905,0,121.339,47.338,121.339,105.523c0,13.798-3.389,27.65-10.072,41.17
	c-2.75,5.563-0.47,12.303,5.093,15.051c5.563,2.75,12.302,0.47,15.051-5.093c8.227-16.644,12.398-33.846,12.398-51.128
	c0-70.577-64.512-127.994-143.809-127.994c-79.294,0-143.808,57.417-143.808,127.994c0,26.64,9.032,51.868,26.198,73.383
	l-25.314,59.962c-1.777,4.211-0.825,9.081,2.408,12.313c2.15,2.151,5.022,3.292,7.945,3.292c1.473,0,2.958-0.29,4.367-0.884
	l72.426-30.574c17.665,6.599,36.406,9.94,55.777,9.94c2.396,0,4.83-0.055,7.233-0.158c6.199-0.271,11.004-5.517,10.731-11.716
	C271.639,350.176,266.384,345.354,260.194,345.644z"/>
</svg>
